<svg id="Layer_1" data-name="Layer 1" xmlns="http://www.w3.org/2000/svg" viewBox="0 0 122.88 122.88"><defs/><path d="M15.36 0h92.16a15.36 15.36 0 0 1 15.36 15.36v92.16a15.36 15.36 0 0 1-15.36 15.36H15.36A15.36 15.36 0 0 1 0 107.52V15.36A15.36 15.36 0 0 1 15.36 0Z" style="fill-rule:evenodd;fill:#0079bf"/><path class="cls-2" d="M76.8 16h22.73a7.39 7.39 0 0 1 7.38 7.38v39a7.38 7.38 0 0 1-7.38 7.37H76.8a7.37 7.37 0 0 1-7.37-7.37v-39A7.38 7.38 0 0 1 76.8 16ZM23.35 16h22.73a7.38 7.38 0 0 1 7.37 7.38v69.7a7.37 7.37 0 0 1-7.37 7.37H23.35A7.38 7.38 0 0 1 16 93.08V23.35A7.39 7.39 0 0 1 23.35 16Z"/></svg>